<svg width="192" height="234" viewBox="0 0 192 234" fill="none" xmlns="http://www.w3.org/2000/svg">
<g filter="url(#filter0_d_214_124)">
<rect x="2" width="184" height="225" rx="5" fill="#F9FEFF" shape-rendering="crispEdges"/>
<rect x="2.5" y="0.5" width="183" height="224" rx="4.5" stroke="#2740AE" shape-rendering="crispEdges"/>
<rect x="69" y="197" width="109" height="19" rx="9.5" fill="#2740AE"/>
<path d="M87.9053 211.392C87.6273 211.424 87.3493 211.49 87.0713 211.59C86.7979 211.686 86.5016 211.822 86.1826 212C86.1051 211.294 85.9502 210.512 85.7178 209.655C85.4899 208.799 85.1823 207.848 84.7949 206.805C84.3711 205.67 83.9837 204.729 83.6328 203.981C83.2819 203.234 82.9583 202.669 82.6621 202.286C82.8353 202.268 83.0085 202.236 83.1816 202.19C83.3594 202.14 83.5257 202.086 83.6807 202.026C83.8356 201.967 83.9746 201.908 84.0977 201.849C84.2207 201.785 84.3164 201.726 84.3848 201.671C84.4531 201.949 84.6104 202.498 84.8564 203.318C85.1071 204.134 85.4489 205.228 85.8818 206.6C86.5062 208.568 86.9368 209.692 87.1738 209.97C87.4199 209.614 87.9076 208.452 88.6367 206.483C89.0788 205.267 89.4137 204.314 89.6416 203.626C89.874 202.933 89.9902 202.507 89.9902 202.348V202.259C90.6419 202.131 91.1068 201.935 91.3848 201.671C91.0977 202.222 90.7786 202.901 90.4277 203.708C90.0768 204.51 89.6895 205.449 89.2656 206.524C88.5456 208.338 88.1012 209.869 87.9326 211.118L87.9053 211.392ZM92.4102 203.906C92.4967 203.533 92.54 203.141 92.54 202.73C92.54 202.607 92.5355 202.484 92.5264 202.361C92.5218 202.238 92.5104 202.115 92.4922 201.992L92.4512 201.849C93.0391 201.789 93.6338 201.587 94.2354 201.24L94.2832 201.213C94.2103 201.473 94.1738 201.844 94.1738 202.327C94.1738 202.455 94.1784 202.596 94.1875 202.751C94.2012 202.901 94.2194 203.068 94.2422 203.25C94.0553 203.273 93.8685 203.309 93.6816 203.359C93.4993 203.405 93.3262 203.46 93.1621 203.523C93.0026 203.583 92.8568 203.646 92.7246 203.715C92.597 203.783 92.4922 203.847 92.4102 203.906ZM92.5264 212C92.613 211.312 92.6768 210.688 92.7178 210.127C92.7633 209.562 92.7861 209.051 92.7861 208.596C92.7861 208.227 92.7816 207.882 92.7725 207.563C92.7679 207.24 92.7565 206.935 92.7383 206.647C92.7201 206.356 92.695 206.076 92.6631 205.807C92.6357 205.538 92.6016 205.267 92.5605 204.993L92.5264 204.884C92.8044 204.852 93.0801 204.788 93.3535 204.692C93.6315 204.592 93.9141 204.462 94.2012 204.303L94.249 204.275C94.0212 205.064 93.9072 206.16 93.9072 207.563V207.803C93.9072 209.083 94.0029 210.191 94.1943 211.125L94.249 211.371C94.0531 211.394 93.8662 211.43 93.6885 211.48C93.5153 211.526 93.3535 211.578 93.2031 211.638C93.0573 211.697 92.9251 211.758 92.8066 211.822C92.6927 211.886 92.5993 211.945 92.5264 212ZM99.123 212.027C98.8542 211.964 98.5306 211.831 98.1523 211.631C97.7741 211.426 97.4323 211.177 97.127 210.886C96.7259 210.498 96.4456 210.077 96.2861 209.621C96.1312 209.243 96.0332 208.764 95.9922 208.186V208.158C95.9922 207.671 96.1038 207.167 96.3271 206.647C96.4958 206.251 96.7214 205.898 97.0039 205.588C97.1224 205.46 97.2591 205.337 97.4141 205.219L98.8496 204.275C99.0911 204.357 99.5036 204.549 100.087 204.85C100.511 205.068 100.921 205.396 101.317 205.834C101.609 206.29 101.755 206.711 101.755 207.099C101.755 207.108 101.755 207.119 101.755 207.133C101.687 207.689 101.431 208.135 100.989 208.473C100.237 209.047 99.3008 209.339 98.1797 209.348C99.5924 208.865 100.429 208.306 100.688 207.673C100.743 207.541 100.771 207.411 100.771 207.283C100.771 207.279 100.771 207.274 100.771 207.27C100.771 207.265 100.771 207.26 100.771 207.256C100.771 207.064 100.691 206.878 100.531 206.695C100.281 206.399 99.9206 206.135 99.4512 205.902C98.6491 205.506 97.9974 205.283 97.4961 205.232C97.3229 205.515 97.1657 205.943 97.0244 206.518C96.915 206.964 96.8604 207.352 96.8604 207.68C96.8604 207.835 96.8717 207.983 96.8945 208.124C96.9583 208.53 97.127 208.938 97.4004 209.348C97.6829 209.767 98.0771 210.097 98.583 210.339C99.0205 210.549 99.6927 210.756 100.6 210.961L100.606 210.954C100.679 210.84 100.716 210.642 100.716 210.359C100.716 210.182 100.686 209.949 100.627 209.662L101.598 210.045C101.475 210.323 101.274 210.574 100.996 210.797C100.786 210.965 100.682 211.052 100.682 211.057L99.123 212.027ZM103.129 204.904C103.32 204.886 103.503 204.854 103.676 204.809C103.854 204.758 104.015 204.704 104.161 204.645C104.312 204.581 104.444 204.517 104.558 204.453C104.676 204.389 104.774 204.33 104.852 204.275C104.674 205.474 104.585 206.629 104.585 207.741C104.594 207.937 104.601 208.113 104.605 208.268C104.615 208.423 104.626 208.564 104.64 208.691C104.653 208.814 104.676 208.928 104.708 209.033C104.74 209.133 104.783 209.229 104.838 209.32C105.016 209.585 105.248 209.817 105.535 210.018C105.822 210.214 106.125 210.378 106.444 210.51C106.768 210.637 107.087 210.735 107.401 210.804C107.716 210.868 107.987 210.899 108.215 210.899C108.534 210.899 108.83 210.852 109.104 210.756C108.748 210.387 108.491 209.988 108.331 209.56C108.172 209.127 108.085 208.66 108.071 208.158C108.049 207.493 108.017 206.912 107.976 206.415C107.935 205.914 107.882 205.492 107.818 205.15L107.764 204.904C107.955 204.886 108.137 204.854 108.311 204.809C108.488 204.758 108.65 204.704 108.796 204.645C108.946 204.581 109.078 204.517 109.192 204.453C109.311 204.389 109.409 204.33 109.486 204.275C109.309 205.474 109.22 206.629 109.22 207.741C109.229 207.937 109.236 208.113 109.24 208.268C109.249 208.423 109.261 208.564 109.274 208.691C109.288 208.814 109.311 208.928 109.343 209.033C109.375 209.133 109.418 209.229 109.473 209.32C109.605 209.516 109.755 209.692 109.924 209.847C110.097 210.002 110.309 210.143 110.56 210.271C110.81 210.394 111.106 210.51 111.448 210.619C111.795 210.724 112.207 210.826 112.686 210.927H112.692C112.711 210.758 112.722 210.492 112.727 210.127C112.736 209.758 112.74 209.286 112.74 208.712V208.473C112.731 207.835 112.706 207.24 112.665 206.688C112.629 206.132 112.558 205.62 112.453 205.15L112.398 204.904C112.59 204.886 112.772 204.854 112.945 204.809C113.123 204.758 113.285 204.704 113.431 204.645C113.581 204.581 113.713 204.517 113.827 204.453C113.946 204.389 114.044 204.33 114.121 204.275C114.035 204.964 113.968 205.59 113.923 206.155C113.882 206.716 113.861 207.224 113.861 207.68C113.861 208.053 113.864 208.4 113.868 208.719C113.877 209.038 113.889 209.343 113.902 209.635C113.921 209.922 113.943 210.2 113.971 210.469C114.003 210.738 114.041 211.009 114.087 211.282L114.121 211.392C113.843 211.424 113.565 211.49 113.287 211.59C113.014 211.686 112.717 211.822 112.398 212C112.444 211.868 112.492 211.724 112.542 211.569C112.592 211.41 112.642 211.243 112.692 211.07L111.195 212C111.072 211.968 110.929 211.92 110.765 211.856C110.605 211.793 110.437 211.713 110.259 211.617C110.086 211.521 109.908 211.412 109.726 211.289C109.543 211.161 109.37 211.018 109.206 210.858L106.561 212C106.369 211.95 106.137 211.861 105.863 211.733C105.59 211.601 105.314 211.435 105.036 211.234C104.758 211.029 104.501 210.79 104.264 210.517C104.027 210.243 103.847 209.936 103.724 209.594C103.546 209.156 103.45 208.678 103.437 208.158C103.414 207.493 103.382 206.912 103.341 206.415C103.3 205.914 103.247 205.492 103.184 205.15L103.129 204.904ZM120.615 212C120.715 211.303 120.791 210.644 120.841 210.024C120.891 209.405 120.916 208.819 120.916 208.268C120.916 207.63 120.889 207.021 120.834 206.442C120.784 205.859 120.725 205.305 120.656 204.781L120.615 204.549C120.893 204.517 121.169 204.453 121.442 204.357C121.72 204.257 122.019 204.118 122.338 203.94C122.233 204.606 122.153 205.216 122.099 205.772C122.049 206.328 122.023 206.834 122.023 207.29C122.023 207.372 122.023 207.447 122.023 207.516C122.023 207.584 122.026 207.659 122.03 207.741C122.035 207.823 122.039 207.919 122.044 208.028C122.049 208.138 122.055 208.272 122.064 208.432L122.194 208.493C122.759 208.698 123.268 208.801 123.719 208.801C124.033 208.801 124.329 208.757 124.607 208.671C124.885 208.584 125.136 208.461 125.359 208.302C125.583 208.138 125.767 207.939 125.913 207.707C126.059 207.47 126.159 207.206 126.214 206.914C126.241 206.75 126.262 206.597 126.275 206.456C126.294 206.31 126.303 206.174 126.303 206.046C126.303 205.818 126.278 205.597 126.228 205.383C126.177 205.164 126.111 204.959 126.029 204.768C125.947 204.572 125.852 204.394 125.742 204.234C125.637 204.07 125.528 203.927 125.414 203.804C125.309 203.694 125.175 203.59 125.011 203.489C124.851 203.389 124.669 203.3 124.464 203.223C124.259 203.145 124.033 203.084 123.787 203.038C123.546 202.993 123.286 202.97 123.008 202.97C122.771 202.97 122.52 202.999 122.256 203.059C121.996 203.113 121.732 203.193 121.463 203.298C121.194 203.403 120.923 203.53 120.649 203.681C120.381 203.831 120.118 204.002 119.863 204.193L120.321 202.402C120.677 202.261 120.946 202.154 121.128 202.081C121.31 202.008 121.41 201.969 121.429 201.965C121.839 201.855 122.188 201.776 122.475 201.726C122.762 201.671 122.999 201.644 123.186 201.644C123.4 201.644 123.641 201.671 123.91 201.726C124.184 201.776 124.462 201.855 124.744 201.965C125.031 202.07 125.309 202.202 125.578 202.361C125.852 202.516 126.098 202.696 126.316 202.901C126.499 203.075 126.665 203.273 126.815 203.496C126.966 203.715 127.096 203.95 127.205 204.2C127.314 204.451 127.399 204.713 127.458 204.986C127.517 205.26 127.547 205.547 127.547 205.848C127.542 206.062 127.513 206.299 127.458 206.559C127.408 206.814 127.33 207.074 127.226 207.338C127.121 207.602 126.973 207.853 126.781 208.09C126.59 208.327 126.362 208.541 126.098 208.732C125.838 208.919 125.53 209.07 125.175 209.184C124.824 209.298 124.421 209.354 123.965 209.354C123.664 209.354 123.366 209.332 123.069 209.286C122.778 209.236 122.486 209.17 122.194 209.088L122.092 209.067C122.128 209.678 122.16 210.163 122.188 210.523C122.215 210.879 122.247 211.109 122.283 211.214L122.338 211.371C122.124 211.394 121.93 211.428 121.757 211.474C121.584 211.519 121.426 211.572 121.285 211.631C121.144 211.69 121.019 211.752 120.909 211.815C120.8 211.879 120.702 211.941 120.615 212ZM129.393 212C129.479 211.312 129.543 210.688 129.584 210.127C129.63 209.562 129.652 209.051 129.652 208.596C129.652 208.227 129.648 207.882 129.639 207.563C129.634 207.24 129.623 206.935 129.604 206.647C129.586 206.356 129.561 206.076 129.529 205.807C129.502 205.538 129.468 205.267 129.427 204.993L129.393 204.884C129.671 204.852 129.946 204.788 130.22 204.692C130.498 204.592 130.78 204.462 131.067 204.303L131.115 204.275C131.07 204.408 131.022 204.553 130.972 204.713C130.922 204.868 130.871 205.032 130.821 205.205L132.318 204.275C132.501 204.326 132.726 204.414 132.995 204.542C133.269 204.665 133.544 204.829 133.822 205.034C134.1 205.235 134.36 205.474 134.602 205.752C134.848 206.025 135.032 206.335 135.155 206.682L133.918 207.188C133.731 206.846 133.517 206.559 133.275 206.326C133.034 206.089 132.785 205.898 132.53 205.752C132.275 205.602 132.024 205.494 131.778 205.431C131.532 205.362 131.311 205.328 131.115 205.328C131.02 205.328 130.924 205.335 130.828 205.349H130.821C130.803 205.517 130.789 205.786 130.78 206.155C130.776 206.52 130.773 206.989 130.773 207.563V207.803C130.773 209.083 130.869 210.191 131.061 211.125L131.115 211.371C130.938 211.394 130.762 211.428 130.589 211.474C130.416 211.519 130.252 211.574 130.097 211.638C129.946 211.697 129.81 211.758 129.687 211.822C129.563 211.886 129.465 211.945 129.393 212ZM136.967 205.273L136.96 205.28C136.828 205.526 136.687 205.939 136.536 206.518C136.427 206.932 136.372 207.32 136.372 207.68C136.372 207.821 136.383 207.969 136.406 208.124C136.465 208.525 136.634 208.933 136.912 209.348C137.199 209.781 137.593 210.111 138.095 210.339C138.564 210.553 139.236 210.76 140.111 210.961L140.118 210.954C140.228 210.708 140.357 210.257 140.508 209.601C140.599 209.204 140.645 208.844 140.645 208.521C140.645 208.347 140.633 208.195 140.61 208.062C140.542 207.661 140.373 207.254 140.104 206.839C139.886 206.502 139.492 206.174 138.922 205.854C138.475 205.604 137.824 205.41 136.967 205.273ZM138.635 212.027C138.361 211.959 138.038 211.827 137.664 211.631C137.295 211.435 136.953 211.187 136.639 210.886C136.238 210.498 135.957 210.077 135.798 209.621C135.602 209.156 135.504 208.678 135.504 208.186C135.504 208.172 135.504 208.163 135.504 208.158C135.504 207.671 135.616 207.167 135.839 206.647C136.017 206.233 136.242 205.88 136.516 205.588C136.643 205.451 136.78 205.328 136.926 205.219L138.375 204.269C138.598 204.328 138.924 204.467 139.353 204.686C139.672 204.85 140.011 205.096 140.371 205.424C140.777 205.816 141.062 206.251 141.226 206.729C141.408 207.24 141.501 207.714 141.506 208.151V208.179C141.506 208.808 141.406 209.307 141.205 209.676C140.895 210.245 140.635 210.624 140.426 210.811C140.312 210.911 140.234 210.993 140.193 211.057L138.635 212.027ZM143.215 203.906C143.301 203.533 143.345 203.141 143.345 202.73C143.345 202.607 143.34 202.484 143.331 202.361C143.326 202.238 143.315 202.115 143.297 201.992L143.256 201.849C143.844 201.789 144.438 201.587 145.04 201.24L145.088 201.213C145.015 201.473 144.979 201.844 144.979 202.327C144.979 202.455 144.983 202.596 144.992 202.751C145.006 202.901 145.024 203.068 145.047 203.25C144.86 203.273 144.673 203.309 144.486 203.359C144.304 203.405 144.131 203.46 143.967 203.523C143.807 203.583 143.661 203.646 143.529 203.715C143.402 203.783 143.297 203.847 143.215 203.906ZM142.107 214.522C142.727 213.698 143.178 212.804 143.461 211.843C143.557 211.524 143.604 210.678 143.604 209.307V209.136C143.604 208.498 143.584 207.846 143.543 207.181C143.502 206.515 143.443 205.827 143.365 205.116L143.324 204.884C143.602 204.852 143.878 204.788 144.151 204.692C144.429 204.592 144.712 204.462 144.999 204.303L145.047 204.275C144.942 204.927 144.862 205.586 144.808 206.251C144.757 206.912 144.732 207.586 144.732 208.274C144.732 208.899 144.746 209.43 144.773 209.867C144.805 210.3 144.846 210.619 144.896 210.824C144.896 210.833 144.871 210.902 144.821 211.029C144.771 211.152 144.698 211.314 144.603 211.515C144.507 211.711 144.391 211.929 144.254 212.171C144.117 212.412 143.962 212.652 143.789 212.889C143.197 213.695 142.661 214.247 142.183 214.543L142.107 214.522ZM149.928 212.027C149.659 211.964 149.335 211.831 148.957 211.631C148.579 211.426 148.237 211.177 147.932 210.886C147.531 210.498 147.25 210.077 147.091 209.621C146.936 209.243 146.838 208.764 146.797 208.186V208.158C146.797 207.671 146.909 207.167 147.132 206.647C147.3 206.251 147.526 205.898 147.809 205.588C147.927 205.46 148.064 205.337 148.219 205.219L149.654 204.275C149.896 204.357 150.308 204.549 150.892 204.85C151.315 205.068 151.726 205.396 152.122 205.834C152.414 206.29 152.56 206.711 152.56 207.099C152.56 207.108 152.56 207.119 152.56 207.133C152.491 207.689 152.236 208.135 151.794 208.473C151.042 209.047 150.105 209.339 148.984 209.348C150.397 208.865 151.233 208.306 151.493 207.673C151.548 207.541 151.575 207.411 151.575 207.283C151.575 207.279 151.575 207.274 151.575 207.27C151.575 207.265 151.575 207.26 151.575 207.256C151.575 207.064 151.495 206.878 151.336 206.695C151.085 206.399 150.725 206.135 150.256 205.902C149.454 205.506 148.802 205.283 148.301 205.232C148.128 205.515 147.97 205.943 147.829 206.518C147.72 206.964 147.665 207.352 147.665 207.68C147.665 207.835 147.676 207.983 147.699 208.124C147.763 208.53 147.932 208.938 148.205 209.348C148.488 209.767 148.882 210.097 149.388 210.339C149.825 210.549 150.497 210.756 151.404 210.961L151.411 210.954C151.484 210.84 151.521 210.642 151.521 210.359C151.521 210.182 151.491 209.949 151.432 209.662L152.402 210.045C152.279 210.323 152.079 210.574 151.801 210.797C151.591 210.965 151.486 211.052 151.486 211.057L149.928 212.027ZM157.064 212.027C156.791 211.959 156.467 211.827 156.094 211.631C155.725 211.435 155.383 211.187 155.068 210.886C154.667 210.498 154.387 210.077 154.228 209.621C154.032 209.147 153.934 208.66 153.934 208.158C153.984 207.529 154.095 207.026 154.269 206.647C154.442 206.251 154.667 205.898 154.945 205.588C155.064 205.456 155.201 205.333 155.355 205.219L156.805 204.269C157.028 204.328 157.354 204.467 157.782 204.686C158.101 204.85 158.441 205.096 158.801 205.424C158.91 205.524 159.058 205.704 159.245 205.964L158.145 206.709C157.921 206.354 157.666 206.076 157.379 205.875C157.051 205.647 156.39 205.447 155.396 205.273L155.39 205.28C155.257 205.526 155.116 205.939 154.966 206.518C154.856 206.932 154.802 207.32 154.802 207.68C154.802 207.826 154.813 207.974 154.836 208.124C154.895 208.521 155.064 208.928 155.342 209.348C155.629 209.781 156.023 210.111 156.524 210.339C156.994 210.553 157.666 210.76 158.541 210.961L158.548 210.954C158.621 210.84 158.657 210.642 158.657 210.359C158.657 210.182 158.628 209.949 158.568 209.662L159.539 210.045C159.416 210.323 159.215 210.574 158.938 210.797C158.728 210.965 158.623 211.052 158.623 211.057L157.064 212.027ZM161.419 212C161.519 211.312 161.592 210.587 161.638 209.826C161.688 209.065 161.713 208.258 161.713 207.406C161.713 207.26 161.713 207.126 161.713 207.003C161.713 206.88 161.711 206.768 161.706 206.668L161.665 205.109C161.337 205.118 161.025 205.137 160.729 205.164C160.437 205.191 160.154 205.23 159.881 205.28C159.945 205.18 160.004 205.046 160.059 204.877C160.109 204.704 160.147 204.503 160.175 204.275L160.284 204.31C160.416 204.351 160.594 204.38 160.817 204.398C161.041 204.412 161.312 204.426 161.631 204.439C161.608 204.016 161.583 203.644 161.556 203.325C161.528 203.006 161.496 202.735 161.46 202.512L161.419 202.279C161.697 202.247 161.973 202.184 162.246 202.088C162.524 201.988 162.823 201.849 163.142 201.671C163.014 202.482 162.925 203.41 162.875 204.453C163.221 204.444 163.543 204.426 163.839 204.398C164.14 204.367 164.42 204.326 164.68 204.275C164.529 204.585 164.436 204.92 164.399 205.28L164.29 205.253C164.135 205.216 163.937 205.191 163.695 205.178C163.454 205.16 163.171 205.141 162.848 205.123C162.843 205.328 162.839 205.533 162.834 205.738C162.834 205.943 162.834 206.155 162.834 206.374V206.613C162.839 207.712 162.859 208.634 162.896 209.382C162.932 210.129 162.996 210.71 163.087 211.125L163.142 211.371C162.978 211.394 162.809 211.43 162.636 211.48C162.463 211.526 162.296 211.581 162.137 211.645C161.982 211.704 161.84 211.765 161.713 211.829C161.585 211.893 161.487 211.95 161.419 212Z" fill="#F9FEFF"/>
</g>
<defs>
<filter id="filter0_d_214_124" x="0" y="0" width="192" height="234" filterUnits="userSpaceOnUse" color-interpolation-filters="sRGB">
<feFlood flood-opacity="0" result="BackgroundImageFix"/>
<feColorMatrix in="SourceAlpha" type="matrix" values="0 0 0 0 0 0 0 0 0 0 0 0 0 0 0 0 0 0 127 0" result="hardAlpha"/>
<feOffset dx="2" dy="5"/>
<feGaussianBlur stdDeviation="2"/>
<feComposite in2="hardAlpha" operator="out"/>
<feColorMatrix type="matrix" values="0 0 0 0 0 0 0 0 0 0 0 0 0 0 0 0 0 0 0.25 0"/>
<feBlend mode="normal" in2="BackgroundImageFix" result="effect1_dropShadow_214_124"/>
<feBlend mode="normal" in="SourceGraphic" in2="effect1_dropShadow_214_124" result="shape"/>
</filter>
</defs>
</svg>
